<?xml version="1.0" standalone="no"?>
<!DOCTYPE svg PUBLIC "-//W3C//DTD SVG 20010904//EN"
 "http://www.w3.org/TR/2001/REC-SVG-20010904/DTD/svg10.dtd">
<svg version="1.0" xmlns="http://www.w3.org/2000/svg"
 width="1280.000000pt" height="725.000000pt" viewBox="0 0 1280.000000 725.000000"
 preserveAspectRatio="xMidYMid meet">
<metadata>
Created by potrace 1.15, written by Peter Selinger 2001-2017
</metadata>
<g transform="translate(0.000000,725.000000) scale(0.100000,-0.100000)"
fill="#000000" stroke="none">
<path d="M169 3806 c-92 -33 -152 -115 -152 -210 0 -87 43 -150 133 -197 42
-23 55 -24 220 -24 163 0 178 2 225 24 46 22 62 23 210 23 146 -1 164 -3 210
-24 46 -21 63 -23 225 -23 163 0 178 2 225 24 46 21 62 23 208 23 145 -1 163
-3 205 -24 44 -21 59 -23 222 -23 163 0 178 2 225 24 46 21 63 23 210 23 146
0 164 -2 210 -24 46 -21 63 -23 225 -23 165 0 178 1 224 24 45 22 59 24 211
23 150 0 166 -2 206 -24 41 -22 55 -23 219 -23 164 0 178 2 225 24 46 22 61
24 201 22 134 -1 157 -4 200 -23 45 -21 64 -23 224 -23 165 0 178 1 224 24 46
23 59 24 205 23 140 -1 161 -3 206 -24 46 -21 63 -23 225 -23 163 0 178 2 225
24 46 21 62 23 208 23 145 -1 163 -3 205 -24 44 -21 59 -23 222 -23 163 0 178
2 225 24 46 22 62 23 210 23 146 -1 164 -3 210 -24 46 -21 63 -23 225 -23 164
0 178 2 225 24 47 22 61 24 204 22 139 -1 159 -3 200 -23 42 -21 60 -23 221
-23 163 0 178 2 225 23 46 22 63 24 210 24 146 0 164 -2 210 -24 46 -21 63
-23 225 -23 165 0 178 1 224 24 46 23 59 24 205 23 140 -1 161 -3 206 -24 46
-21 63 -23 225 -23 165 0 178 1 224 24 46 23 59 24 210 23 146 -1 166 -3 211
-24 46 -21 64 -23 225 -23 165 0 178 1 224 24 46 23 59 24 208 23 145 -1 164
-3 206 -24 44 -21 59 -23 222 -23 164 0 178 2 225 24 46 22 61 24 201 22 134
-1 157 -4 200 -23 45 -21 64 -23 224 -23 165 0 178 1 220 24 59 31 88 57 112
106 43 83 16 204 -59 261 -61 46 -95 53 -274 54 -175 0 -212 -6 -266 -46 -29
-22 -41 -24 -161 -24 -98 0 -132 3 -141 14 -6 8 -34 24 -62 36 -47 20 -64 21
-233 18 l-183 -3 -52 -32 c-52 -33 -53 -33 -181 -33 -128 0 -129 0 -181 33
l-52 32 -176 3 c-190 4 -234 -3 -288 -44 -30 -23 -39 -24 -172 -24 -91 0 -142
4 -147 11 -3 6 -30 22 -58 35 -48 22 -63 24 -226 24 -163 0 -178 -2 -226 -24
-28 -13 -55 -29 -58 -35 -5 -7 -54 -11 -141 -11 -133 0 -134 0 -186 32 l-52
33 -176 3 c-190 4 -234 -3 -288 -44 -30 -23 -40 -24 -165 -24 -126 0 -136 2
-166 24 -55 40 -104 48 -293 44 l-176 -3 -52 -32 c-52 -33 -53 -33 -181 -33
-83 0 -131 4 -136 11 -3 6 -30 22 -58 35 -48 22 -63 24 -226 24 -163 0 -178
-2 -226 -24 -28 -13 -55 -29 -58 -35 -11 -17 -290 -15 -305 3 -6 8 -34 24 -62
36 -47 20 -64 21 -233 18 l-183 -3 -52 -32 c-52 -33 -53 -33 -186 -33 -87 0
-136 4 -141 11 -3 6 -30 22 -58 35 -48 22 -63 24 -226 24 -163 0 -178 -2 -226
-24 -28 -13 -55 -29 -58 -35 -5 -7 -54 -11 -141 -11 -133 0 -134 0 -186 33
l-52 32 -176 3 c-189 4 -238 -4 -293 -44 -30 -22 -41 -24 -158 -24 -113 0
-129 2 -144 19 -35 39 -99 51 -270 51 -175 0 -214 -7 -266 -45 -32 -24 -41
-25 -166 -25 -132 0 -133 0 -185 33 l-52 32 -183 3 c-169 3 -186 2 -233 -18
-28 -12 -56 -28 -62 -36 -17 -20 -291 -20 -308 0 -6 8 -34 24 -62 36 -47 20
-64 21 -233 18 l-183 -3 -52 -32 c-52 -33 -53 -33 -186 -33 -87 0 -136 4 -141
11 -3 6 -30 22 -58 35 -48 22 -63 24 -226 24 -163 0 -178 -2 -226 -24 -28 -13
-55 -29 -58 -35 -5 -7 -56 -11 -147 -11 -132 0 -142 1 -172 24 -18 13 -47 28
-66 35 -48 16 -355 14 -402 -3z m306 -150 c-18 -28 -23 -78 -12 -118 l7 -28
-110 0 c-121 0 -166 12 -194 51 -23 34 -20 57 13 90 l29 29 141 0 141 0 -15
-24z m869 3 c-20 -22 -26 -98 -10 -131 7 -17 0 -18 -88 -18 -93 0 -96 1 -86
19 15 28 12 88 -5 121 l-16 30 112 0 112 0 -19 -21z m854 -14 c-20 -35 -21
-71 -3 -117 7 -16 -1 -18 -85 -18 -84 0 -91 1 -84 18 16 33 10 109 -10 131
l-19 21 111 0 111 0 -21 -35z m867 5 c-17 -33 -20 -93 -5 -121 10 -18 7 -19
-85 -19 -86 0 -113 8 -85 25 15 9 12 89 -5 111 -8 10 -15 22 -15 27 0 4 47 7
105 7 l106 0 -16 -30z m873 8 c-25 -39 -29 -75 -14 -113 l15 -35 -96 0 c-87 0
-95 2 -88 18 16 42 15 78 -3 115 l-20 37 110 0 110 0 -14 -22z m852 15 c0 -5
-7 -17 -15 -27 -17 -22 -20 -102 -5 -111 27 -16 3 -25 -69 -25 l-80 0 6 54 c4
38 1 63 -10 85 l-15 31 94 0 c52 0 94 -3 94 -7z m854 -14 c-20 -22 -26 -98
-10 -131 7 -17 0 -18 -84 -18 -84 0 -92 2 -85 18 18 46 17 82 -3 117 l-21 35
111 0 111 0 -19 -21z m854 -14 c-20 -35 -21 -71 -3 -117 7 -16 -1 -18 -84 -18
-90 0 -92 0 -80 21 16 30 14 81 -5 118 l-17 31 105 0 105 0 -21 -35z m870 -2
c-18 -37 -19 -73 -3 -115 7 -16 -1 -18 -84 -18 l-91 0 7 28 c11 40 6 90 -12
118 l-15 24 109 0 109 0 -20 -37z m858 12 c-18 -28 -23 -77 -12 -117 l8 -28
-86 0 c-83 0 -86 1 -76 19 15 28 12 88 -5 121 l-16 30 102 0 101 0 -16 -25z
m859 -5 c-17 -33 -20 -93 -5 -121 10 -18 7 -19 -81 -19 l-91 0 8 28 c12 40 7
90 -11 118 l-15 24 105 0 106 0 -16 -30z m864 1 c-21 -29 -23 -81 -5 -123 7
-16 0 -18 -84 -18 -84 0 -92 2 -85 18 16 42 15 78 -3 115 l-20 37 109 0 110 0
-22 -29z m870 0 c-21 -29 -23 -81 -5 -123 7 -16 0 -18 -88 -18 -93 0 -96 1
-86 19 15 28 12 88 -5 121 l-16 30 111 0 111 0 -22 -29z m860 -6 c-21 -35 -22
-76 -4 -117 6 -16 -1 -18 -85 -18 -84 0 -91 1 -84 18 16 33 10 109 -10 131
l-19 21 111 0 111 0 -20 -35z m942 6 c33 -33 36 -56 13 -90 -27 -37 -74 -51
-178 -51 l-96 0 10 26 c14 37 12 81 -5 114 l-16 30 122 0 c120 0 121 0 150
-29z m-11741 -61 c0 -18 -7 -20 -75 -20 -56 0 -75 3 -75 13 0 23 11 27 82 27
61 0 68 -2 68 -20z m860 0 c0 -18 -7 -20 -70 -20 -63 0 -70 2 -70 20 0 18 7
20 70 20 63 0 70 -2 70 -20z m868 -2 c3 -16 -6 -18 -72 -18 -57 0 -76 3 -76
13 0 24 13 28 79 25 53 -2 66 -6 69 -20z m862 2 c0 -18 -7 -20 -70 -20 -63 0
-70 2 -70 20 0 18 7 20 70 20 63 0 70 -2 70 -20z m840 0 c0 -18 -7 -20 -60
-20 -43 0 -60 4 -60 13 0 23 11 27 67 27 46 0 53 -2 53 -20z m870 0 c0 -18 -7
-20 -70 -20 -63 0 -70 2 -70 20 0 18 7 20 70 20 63 0 70 -2 70 -20z m860 0 c0
-18 -7 -20 -70 -20 -63 0 -70 2 -70 20 0 18 7 20 70 20 63 0 70 -2 70 -20z
m868 -2 c3 -16 -6 -18 -72 -18 -57 0 -76 3 -76 13 0 24 13 28 79 25 53 -2 66
-6 69 -20z m852 2 c0 -18 -7 -20 -65 -20 -47 0 -65 4 -65 13 0 23 11 27 72 27
51 0 58 -2 58 -20z m868 -2 c3 -16 -5 -18 -67 -18 -65 0 -71 2 -71 20 0 19 5
21 67 18 55 -2 68 -6 71 -20z m862 2 c0 -18 -7 -20 -70 -20 -63 0 -70 2 -70
20 0 18 7 20 70 20 63 0 70 -2 70 -20z m868 -2 c3 -16 -6 -18 -72 -18 -70 0
-76 2 -76 20 0 19 5 21 72 18 60 -2 73 -6 76 -20z m862 2 c0 -18 -7 -20 -70
-20 -63 0 -70 2 -70 20 0 18 7 20 70 20 63 0 70 -2 70 -20z m848 -2 c3 -16 -5
-18 -62 -18 -48 0 -66 4 -66 13 0 23 13 28 70 25 43 -2 56 -7 58 -20z m-7598
2 c0 -5 -4 -10 -10 -10 -5 0 -10 5 -10 10 0 6 5 10 10 10 6 0 10 -4 10 -10z"/>
</g>
</svg>
